<?xml version="1.0" encoding="utf-8"?>
<!-- Generator: Adobe Illustrator 18.1.1, SVG Export Plug-In . SVG Version: 6.00 Build 0)  -->
<svg version="1.1" id="Capa_1" xmlns="http://www.w3.org/2000/svg" xmlns:xlink="http://www.w3.org/1999/xlink" x="0px" y="0px"
	 viewBox="0 331 1200 137" enable-background="new 0 331 1200 137" xml:space="preserve">
<g>
	<g>
		<polygon fill="#FFD000" points="80.1,399.5 104.6,375.1 104.6,424 		"/>
		<polygon fill="#FFD000" points="132.7,428.3 132.7,452.1 107.7,427 107.7,403.1 		"/>
		<polygon fill="#FFD000" points="109.9,369.8 132.8,346.9 132.8,369.8 		"/>
		<rect x="107.7" y="372.9" fill="#FFD000" width="25.1" height="25.1"/>
		<polygon fill="#FFD000" points="109.9,401 132.8,401 132.8,423.9 		"/>
		<polygon fill="#FFD000" points="186.9,344.8 135.9,395.9 135.9,344.8 		"/>
		<polygon fill="#FFD000" points="135.8,454.2 135.8,403.1 186.9,454.2 		"/>
	</g>
	<path d="M220.1,419.1c-5.6,0-10.2-1.9-14-5.5c-3.7-3.7-5.6-8.3-5.6-13.9c0-5.6,1.9-10.2,5.7-13.9s8.4-5.6,13.9-5.6
		c6.3,0,11.5,2.3,15.7,7l9.3-7.9c-6.3-7.2-15.1-11.5-25-11.5c-9.3,0-17.1,3-23.5,9.1c-6.5,6.1-9.7,13.6-9.7,22.7s3.2,16.6,9.7,22.7
		c6.5,6,14.3,9,23.5,9c9.8,0,18.8-4.2,25-11.6l-9.3-7.9C231.7,416.7,226.5,419.1,220.1,419.1z M269.9,384.6
		c-6.9,0-12.7,2.3-17.6,6.9c-4.8,4.5-7.2,10.1-7.2,16.7s2.4,12.2,7.2,16.8c4.9,4.5,10.7,6.8,17.6,6.8c6.8,0,12.7-2.3,17.5-6.8
		c4.9-4.6,7.3-10.2,7.3-16.8s-2.4-12.2-7.3-16.7C282.6,386.9,276.8,384.6,269.9,384.6z M278.2,416.5c-2.2,2.2-5,3.4-8.2,3.4
		c-3.3,0-6-1.2-8.2-3.4c-2.2-2.2-3.4-5.1-3.4-8.3s1.2-6,3.4-8.2c2.2-2.3,5-3.5,8.2-3.5c3.3,0,6,1.2,8.2,3.5c2.2,2.2,3.4,5,3.4,8.2
		S280.4,414.2,278.2,416.5z M311.2,414v-45.1H298V416c0,10.4,5.1,15.7,15.2,15.7l6.3,0v-12C312.6,419.7,311.2,418,311.2,414z
		 M407.3,414.9v-28.9h-13.2v25c0,5.2-3.4,8.8-8.2,8.8c-5,0-7.7-3.2-7.7-8.4v-25.5H365V413c0,11.6,6.3,18.5,17.5,18.5
		c6.5,0,10.9-2.2,13.1-6.5c0.6,1.9,1.9,3.5,4,4.8c1.9,1.1,4.3,1.6,7.3,1.6c2.6,0,4.5-0.3,5.9-0.7v-11c0,0-1.6,0-2.2,0
		C408.2,419.6,407.3,418.4,407.3,414.9z M443.3,385.1c-6.7,0-12,2.7-13.3,6.6v-22.9h-13.2v61.7H430v-5.8c1.3,3.9,6.5,6.6,13.3,6.6
		c6.3,0,11.6-2.2,15.7-6.6c4.2-4.5,6.4-10,6.4-16.5c0-6.5-2.1-12-6.4-16.4C454.9,387.3,449.6,385.1,443.3,385.1z M449,416.2
		c-2.2,2.1-4.9,3.2-8.1,3.2c-3.3,0-6-1.1-8.3-3.2c-2.2-2.2-3.4-4.9-3.4-8s1.2-5.8,3.4-7.9c2.3-2.2,5.1-3.3,8.3-3.3
		c3.2,0,5.8,1.1,8.1,3.3c2.2,2.1,3.3,4.8,3.3,7.9C452.3,411.3,451.2,414,449,416.2z M493.9,404.1c-5-1.8-8.7-2.4-10.4-3.1
		c-1.4-0.6-1.9-1.2-1.9-2.4c0-1.7,1.6-2.8,4.4-2.8c3.8,0,7,1.1,9.4,3.3l6.3-8.7c-4-3.8-9-5.8-15.3-5.8c-4.9,0-8.9,1.2-12.3,3.8
		c-3.4,2.5-5,6-5,10.5c0,5.9,3.5,10,10.3,12.4c1.3,0.4,3.4,1.1,6,1.7c2.7,0.6,4.4,1.2,5.4,1.8c1,0.5,1.5,1.2,1.5,2.1
		c0,2.4-2.2,3.6-6.7,3.6c-5,0-9.7-1.9-12.2-4.9l-7.6,8.1c4.3,5.3,10.8,8,19.5,8c13.1,0,19.6-5.9,19.6-15
		C504.9,410.8,501.3,406.5,493.9,404.1z M350.8,404.1c-5-1.8-8.7-2.4-10.4-3.1c-1.4-0.6-1.9-1.2-1.9-2.4c0-1.7,1.6-2.8,4.4-2.8
		c3.8,0,7,1.1,9.4,3.3l6.3-8.7c-4-3.8-9-5.8-15.3-5.8c-4.9,0-8.9,1.2-12.3,3.8c-3.4,2.5-5,6-5,10.5c0,5.9,3.5,10,10.3,12.4
		c1.3,0.4,3.4,1.1,6,1.7c2.7,0.6,4.4,1.2,5.4,1.8c1,0.5,1.5,1.2,1.5,2.1c0,2.4-2.2,3.6-6.7,3.6c-5,0-9.7-1.9-12.2-4.9l-7.6,8.1
		c4.3,5.3,10.8,8,19.5,8c13.1,0,19.6-5.9,19.6-15C361.8,410.8,358.2,406.5,350.8,404.1z M516,382.1c4.2,0,7.5-3.3,7.5-7.4
		c0-4.2-3.4-7.5-7.5-7.5c-4.2,0-7.5,3.3-7.5,7.5C508.5,378.8,511.8,382.1,516,382.1z M523.9,419.1c-0.5-0.4-0.8-0.9-1-1.5
		c-0.3-0.9-0.3-1.8-0.3-2.7v-28.9h-13.2v32.8c0,8.4,3.9,12.6,11.7,12.6c2.9,0,6.1,0,6.1,0s0-11.3,0-11.7c-0.3,0-0.5,0-0.8,0
		C525.6,419.5,524.7,419.6,523.9,419.1z M577.5,414.9v-46h-13.2v22.9c-1.3-3.9-6.5-6.6-13.3-6.6c-6.3,0-11.6,2.2-15.8,6.7
		c-4.2,4.4-6.3,9.9-6.3,16.4c0,6.5,2.1,12,6.3,16.6c4.2,4.4,9.6,6.6,15.8,6.6c7,0,11.9-2.1,14.8-6.5c0.6,1.9,1.9,3.5,4,4.8
		c1.9,1.1,4.3,1.6,7.3,1.6c2.6,0,5.9,0,5.9,0v-11.7c0,0-1.6,0-2.2,0C578.4,419.6,577.5,418.4,577.5,414.9z M561.6,416.2
		c-2.2,2.1-5,3.2-8.2,3.2c-3.2,0-5.8-1.1-8.1-3.2c-2.2-2.2-3.3-4.9-3.3-8s1.1-5.8,3.3-7.9c2.2-2.2,4.9-3.3,8.1-3.3
		c3.3,0,6,1.1,8.2,3.3c2.3,2.1,3.5,4.8,3.5,7.9C565.1,411.3,563.9,414,561.6,416.2z M648.2,391.5c-4.9-4.6-10.7-6.9-17.5-6.9
		c-6.9,0-12.7,2.3-17.6,6.9c-4.8,4.5-7.2,10.1-7.2,16.7s2.4,12.2,7.2,16.8c4.9,4.5,10.7,6.8,17.6,6.8c6.8,0,12.7-2.3,17.5-6.8
		c4.9-4.6,7.3-10.2,7.3-16.8S653.1,396,648.2,391.5z M638.9,416.5c-2.2,2.2-5,3.4-8.2,3.4c-3.3,0-6-1.2-8.2-3.4
		c-2.2-2.2-3.4-5.1-3.4-8.3s1.2-6,3.4-8.2c2.2-2.3,5-3.5,8.2-3.5c3.3,0,6,1.2,8.2,3.5c2.2,2.2,3.4,5,3.4,8.2
		S641.1,414.2,638.9,416.5z M592.2,382.1c4.2,0,7.5-3.3,7.5-7.4c0-4.2-3.4-7.5-7.5-7.5s-7.5,3.3-7.5,7.5
		C584.7,378.8,588.1,382.1,592.2,382.1z M600.2,419.1c-0.5-0.4-0.8-0.9-1-1.5c-0.3-0.9-0.3-1.8-0.3-2.7v-28.9h-13.2v32.8
		c0,8.4,3.9,12.6,11.7,12.6c2.9,0,6.1,0,6.1,0s0-11.3,0-11.7c-0.3,0-0.5,0-0.8,0C601.9,419.5,600.9,419.6,600.2,419.1z"/>
	<g>
		<g>
			<polygon fill="#FFD000" points="862.5,386.5 862.5,370.5 879.9,370.5 			"/>
			<path fill="#1A3E70" d="M738.3,384.5c5.3,0,9.8,2,13.7,6.2l11.1-11c-6.7-7.5-15-11.1-24.9-11.1c-9.2,0-17.1,3.1-23.5,9.1
				c-6.3,6-9.5,13.5-9.5,22.5c0,9,3.2,16.5,9.5,22.5c6.4,6,14.2,9,23.5,9c9.8,0,18.1-3.7,24.9-11.1l-11.1-11
				c-3.9,4.1-8.4,6.2-13.7,6.2c-8.5,0-15.3-6.5-15.3-15.5C723,391.2,729.6,384.5,738.3,384.5z"/>
			<path fill="#1A3E70" d="M800.3,416.6c-7.1,0-12.4-2.7-14.6-7.1h-17.8c1.3,5.3,4,9.9,7.9,13.6c6,5.6,13.9,8.4,23.7,8.4
				c10.1,0,18.7-3.7,25.7-10.9l-10.3-9.8C810.7,414.7,805.9,416.6,800.3,416.6z"/>
			<path fill="#1A3E70" d="M859.2,347.6H842v22.9h-7.8v16h7.8v23.9c0,14.2,6.9,21.3,20.6,21.3c3.4,0,6.3-0.2,8.7-0.8v-15.6
				c-2,0.4-3.6,0.5-4.5,0.5c-5.3,0-7.6-2.3-7.6-7.9V347.6z"/>
			<path fill="#0067B1" d="M821.3,377.7c-5.7-5.8-13-8.8-22.1-8.8c-9.4,0-17.2,2.8-23.2,8.7c-6,5.7-9.1,13.3-9.1,22.6v0.5
				c0,1.5,0.1,2.9,0.3,4.3h62.5c0.1-1.8,0.2-3.7,0.2-5.7C829.8,390.6,827,383.5,821.3,377.7z M784.7,393.4c0.5-5.6,6.7-9.9,14.4-9.9
				c7.1,0,12.9,4.4,12.9,9.9H784.7z"/>
		</g>
		<g>
			<g>
				<path fill="#0067B1" d="M890.3,390v-28.7h18.6v4.6h-13.4v6.8h12.5v4.6h-12.5v7.9h13.7v4.6L890.3,390L890.3,390z"/>
				<path fill="#0067B1" d="M929.1,372.3v-10.9h5v22.4c0,1.8,0.4,2.4,1.6,2.4c0.3,0,0.7,0,1-0.1v4c-0.6,0.2-1.4,0.3-2.5,0.3
					c-1.2,0-2.2-0.2-2.9-0.7c-0.9-0.6-1.5-1.4-1.7-2.5c-1.5,2.2-3.9,3.2-7.3,3.2c-3,0-5.5-1-7.5-3.1c-2-2.1-3-4.6-3-7.7s1-5.6,3-7.7
					c2.1-2.1,4.6-3.1,7.5-3.1C925.7,368.9,928.3,370.3,929.1,372.3z M927.6,384.2c1.3-1.2,1.9-2.7,1.9-4.5c0-1.8-0.6-3.3-1.9-4.5
					c-1.2-1.2-2.8-1.8-4.6-1.8s-3.3,0.6-4.5,1.8c-1.2,1.2-1.8,2.7-1.8,4.5c0,1.8,0.6,3.3,1.8,4.5c1.2,1.2,2.7,1.8,4.5,1.8
					S926.4,385.4,927.6,384.2z"/>
				<path fill="#0067B1" d="M939.3,369.3h5v12.1c0,2.8,1.6,4.6,4.3,4.6c2.7,0,4.6-2,4.6-4.8v-11.9h5v14.4c0,1.8,0.4,2.4,1.6,2.4
					c0.3,0,0.7,0,1-0.1v4c-0.6,0.2-1.4,0.3-2.5,0.3c-1.3,0-2.3-0.3-3.1-0.8c-0.8-0.6-1.3-1.3-1.5-2.2c-1.2,2-3.4,3-6.4,3
					c-5,0-8.1-3.2-8.1-8.3V369.3z"/>
				<path fill="#0067B1" d="M982.6,372.2l-3.1,3.2c-1.5-1.5-3.3-2.3-5.4-2.3c-1.8,0-3.4,0.6-4.7,1.8c-1.2,1.2-1.8,2.8-1.8,4.6
					s0.6,3.4,1.8,4.6c1.3,1.2,2.8,1.8,4.7,1.8c2.1,0,3.9-0.7,5.4-2.3l3.1,3.2c-2.3,2.4-5.1,3.6-8.5,3.6c-3.2,0-6-1-8.2-3.1
					c-2.2-2.1-3.3-4.7-3.3-7.9c0-3.1,1.1-5.7,3.3-7.8c2.2-2.1,5-3.2,8.2-3.2C977.5,368.6,980.3,369.8,982.6,372.2z"/>
				<path fill="#0067B1" d="M1001.7,372.3v-3h5v14.5c0,1.8,0.4,2.4,1.6,2.4c0.3,0,0.7,0,1-0.1v4c-0.6,0.2-1.4,0.3-2.5,0.3
					c-1.2,0-2.2-0.2-2.9-0.7c-0.9-0.6-1.5-1.4-1.7-2.5c-1.5,2.2-3.9,3.2-7.3,3.2c-3,0-5.5-1-7.5-3.1c-2-2.1-3-4.6-3-7.7s1-5.6,3-7.7
					c2.1-2.1,4.6-3.1,7.5-3.1C998.3,368.9,1000.9,370.3,1001.7,372.3z M1000.2,384.2c1.3-1.2,1.9-2.7,1.9-4.5c0-1.8-0.6-3.3-1.9-4.5
					c-1.2-1.2-2.8-1.8-4.6-1.8s-3.3,0.6-4.5,1.8c-1.2,1.2-1.8,2.7-1.8,4.5c0,1.8,0.6,3.3,1.8,4.5c1.2,1.2,2.7,1.8,4.5,1.8
					S999,385.4,1000.2,384.2z"/>
				<path fill="#0067B1" d="M1030.7,372.2l-3.1,3.2c-1.5-1.5-3.3-2.3-5.4-2.3c-1.8,0-3.4,0.6-4.7,1.8c-1.2,1.2-1.8,2.8-1.8,4.6
					s0.6,3.4,1.8,4.6c1.3,1.2,2.8,1.8,4.7,1.8c2.1,0,3.9-0.7,5.4-2.3l3.1,3.2c-2.3,2.4-5.1,3.6-8.5,3.6c-3.2,0-6-1-8.2-3.1
					c-2.2-2.1-3.3-4.7-3.3-7.9c0-3.1,1.1-5.7,3.3-7.8c2.2-2.1,5-3.2,8.2-3.2C1025.7,368.6,1028.5,369.8,1030.7,372.2z"/>
				<path fill="#0067B1" d="M1033.3,364c0-1.7,1.3-2.9,3-2.9c1.6,0,3,1.3,3,2.9c0,1.7-1.3,2.9-3,2.9
					C1034.6,366.9,1033.3,365.6,1033.3,364z M1033.8,369.3h5v14.6c0,1.6,0.3,2.2,1.5,2.2c0.4,0,0.7,0,0.9-0.1v4.1
					c-0.5,0.2-1.3,0.3-2.5,0.3c-3.2,0-4.9-1.8-4.9-5.3L1033.8,369.3L1033.8,369.3z"/>
				<path fill="#0067B1" d="M1042.9,379.7c0-3.1,1.1-5.7,3.4-7.8c2.2-2.1,5-3.2,8.2-3.2c3.2,0,6,1.1,8.2,3.2
					c2.2,2.1,3.4,4.7,3.4,7.8s-1.1,5.7-3.4,7.8c-2.2,2.1-5,3.2-8.2,3.2c-3.2,0-6-1.1-8.2-3.2C1044,385.4,1042.9,382.8,1042.9,379.7z
					 M1059.1,384.3c1.3-1.3,1.9-2.8,1.9-4.6c0-1.8-0.6-3.4-1.9-4.6c-1.3-1.3-2.8-1.9-4.7-1.9c-1.9,0-3.4,0.6-4.7,1.9
					c-1.2,1.2-1.8,2.8-1.8,4.6c0,1.8,0.6,3.4,1.8,4.6c1.3,1.2,2.8,1.8,4.7,1.8C1056.2,386.2,1057.8,385.6,1059.1,384.3z
					 M1052.4,367.3l2.1-6h5.7l-4.1,6H1052.4z"/>
				<path fill="#0067B1" d="M1069.5,390v-20.7h5v3c1-2,3.4-3.4,6.3-3.4c5,0,7.9,3.2,7.9,8.3v6.5c0,1.6,0.3,2.2,1.4,2.2
					c0.3,0,0.5,0,0.7-0.1v4.1c-0.6,0.2-1.3,0.2-2.2,0.2c-3.3,0-5-1.8-5-5.4v-6.9c0-2.8-1.6-4.6-4.4-4.6c-2.8,0-4.8,2-4.8,4.8V390
					L1069.5,390L1069.5,390z"/>
			</g>
			<g>
				<path fill="#0067B1" d="M898.2,430.1v-24h-7.9v-4.6h21.1v4.6h-7.9v24H898.2z"/>
				<path fill="#0067B1" d="M910.4,419.8c0-3.3,1-5.9,3.1-7.9c2.1-2,4.7-3,8-3c3.1,0,5.6,1,7.5,3c2,2,2.9,4.5,2.9,7.5
					c0,0.6,0,1.2-0.1,1.7h-16.5c0.2,3.3,2.6,5.4,6.4,5.4c2.2,0,4.1-0.8,5.7-2.4l3,2.9c-2.4,2.5-5.3,3.7-8.9,3.7c-3.3,0-6-1-8.1-2.9
					c-2.1-1.9-3.1-4.5-3.1-7.8L910.4,419.8L910.4,419.8z M926.8,417.6c0-1.2-0.6-2.3-1.6-3.2c-1-0.9-2.3-1.4-3.7-1.4
					c-1.6,0-2.9,0.5-4.1,1.3c-1.1,0.9-1.8,1.9-1.9,3.2H926.8z"/>
				<path fill="#0067B1" d="M954.3,412.3l-3.1,3.2c-1.5-1.5-3.3-2.3-5.4-2.3c-1.8,0-3.4,0.6-4.7,1.8c-1.2,1.2-1.8,2.8-1.8,4.6
					s0.6,3.4,1.8,4.6c1.3,1.2,2.8,1.8,4.7,1.8c2.1,0,3.9-0.7,5.4-2.3l3.1,3.2c-2.3,2.4-5.1,3.6-8.5,3.6c-3.2,0-6-1-8.2-3.1
					c-2.2-2.1-3.3-4.7-3.3-7.9s1.1-5.7,3.3-7.8c2.2-2.1,5-3.2,8.2-3.2C949.3,408.7,952.1,409.9,954.3,412.3z"/>
				<path fill="#0067B1" d="M957.4,430.1v-20.7h5v3c1-2,3.4-3.4,6.3-3.4c5,0,7.9,3.2,7.9,8.3v6.5c0,1.6,0.3,2.2,1.4,2.2
					c0.3,0,0.5,0,0.7-0.1v4.1c-0.6,0.2-1.3,0.2-2.2,0.2c-3.3,0-5-1.8-5-5.4V418c0-2.8-1.6-4.6-4.4-4.6s-4.8,2-4.8,4.8v11.9
					L957.4,430.1L957.4,430.1z"/>
				<path fill="#0067B1" d="M980.6,419.8c0-3.1,1.1-5.7,3.4-7.8c2.2-2.1,5-3.2,8.2-3.2c3.2,0,6,1.1,8.2,3.2c2.2,2.1,3.4,4.7,3.4,7.8
					s-1.1,5.7-3.4,7.8c-2.2,2.1-5,3.2-8.2,3.2c-3.2,0-6-1.1-8.2-3.2C981.8,425.5,980.6,422.9,980.6,419.8z M996.8,424.4
					c1.3-1.3,1.9-2.8,1.9-4.6s-0.6-3.4-1.9-4.6c-1.3-1.3-2.8-1.9-4.7-1.9c-1.9,0-3.4,0.6-4.7,1.9c-1.2,1.2-1.8,2.8-1.8,4.6
					s0.6,3.4,1.8,4.6c1.3,1.2,2.8,1.8,4.7,1.8C994,426.3,995.6,425.7,996.8,424.4z"/>
				<path fill="#0067B1" d="M1007.2,401.5h5v21.9c0,2,0.7,2.9,2.5,2.9c0.6,0,1.1,0,1.5-0.2v4.4c-0.6,0.2-1.4,0.2-2.4,0.2
					c-4.4,0-6.7-2.2-6.7-6.7L1007.2,401.5L1007.2,401.5z"/>
				<path fill="#0067B1" d="M1017.8,419.8c0-3.1,1.1-5.7,3.4-7.8c2.2-2.1,5-3.2,8.2-3.2c3.2,0,6,1.1,8.2,3.2
					c2.2,2.1,3.4,4.7,3.4,7.8s-1.1,5.7-3.4,7.8c-2.2,2.1-5,3.2-8.2,3.2c-3.2,0-6-1.1-8.2-3.2
					C1018.9,425.5,1017.8,422.9,1017.8,419.8z M1034,424.4c1.3-1.3,1.9-2.8,1.9-4.6s-0.6-3.4-1.9-4.6c-1.3-1.3-2.8-1.9-4.7-1.9
					c-1.9,0-3.4,0.6-4.7,1.9c-1.2,1.2-1.8,2.8-1.8,4.6s0.6,3.4,1.8,4.6c1.3,1.2,2.8,1.8,4.7,1.8
					C1031.2,426.3,1032.7,425.7,1034,424.4z M1027.3,407.4l2.1-6h5.7l-4.1,6H1027.3z"/>
				<path fill="#0067B1" d="M1060.8,409.4h5v17.3c0,5-0.7,8-3.6,10.2c-2,1.5-4.5,2.3-7.5,2.3c-4,0-7.3-1-10.2-3l2.4-3.7
					c2.3,1.5,4.7,2.3,7.3,2.3c2,0,3.5-0.4,4.7-1.2c1.3-0.9,2-2.7,2-5.3v-1c-1,1.8-3.5,3-6.9,3c-3,0-5.5-1-7.5-3c-2-2-3-4.6-3-7.6
					c0-3,1-5.5,3.1-7.6c2.1-2.1,4.5-3.1,7.5-3.1c3.5,0,6,1.4,6.8,3.5L1060.8,409.4L1060.8,409.4z M1059.3,424.2
					c1.3-1.2,1.9-2.7,1.9-4.5c0-1.8-0.6-3.2-1.9-4.4c-1.2-1.2-2.8-1.8-4.6-1.8c-1.8,0-3.3,0.6-4.5,1.8c-1.2,1.2-1.8,2.7-1.8,4.4
					c0,1.8,0.6,3.3,1.8,4.5c1.2,1.2,2.7,1.8,4.5,1.8S1058.1,425.4,1059.3,424.2z"/>
				<path fill="#0067B1" d="M1069.7,404.1c0-1.7,1.3-2.9,3-2.9c1.6,0,3,1.3,3,2.9c0,1.7-1.3,2.9-3,2.9
					C1071,407,1069.7,405.7,1069.7,404.1z M1070.2,409.4h5V424c0,1.6,0.3,2.2,1.5,2.2c0.4,0,0.7,0,0.9-0.1v4.1
					c-0.5,0.2-1.3,0.3-2.5,0.3c-3.2,0-4.9-1.8-4.9-5.3L1070.2,409.4L1070.2,409.4z"/>
				<path fill="#0067B1" d="M1099.2,412.3l-3.1,3.2c-1.5-1.5-3.3-2.3-5.4-2.3c-1.8,0-3.4,0.6-4.7,1.8c-1.2,1.2-1.8,2.8-1.8,4.6
					s0.6,3.4,1.8,4.6c1.3,1.2,2.8,1.8,4.7,1.8c2.1,0,3.9-0.7,5.4-2.3l3.1,3.2c-2.3,2.4-5.1,3.6-8.5,3.6c-3.2,0-6-1-8.2-3.1
					c-2.2-2.1-3.3-4.7-3.3-7.9s1.1-5.7,3.3-7.8c2.2-2.1,5-3.2,8.2-3.2C1094.1,408.7,1096.9,409.9,1099.2,412.3z"/>
				<path fill="#0067B1" d="M1118.3,412.4v-3h5v14.5c0,1.8,0.4,2.4,1.6,2.4c0.3,0,0.7,0,1-0.1v4c-0.6,0.2-1.4,0.3-2.5,0.3
					c-1.2,0-2.2-0.2-2.9-0.7c-0.9-0.6-1.5-1.4-1.7-2.5c-1.5,2.2-3.9,3.2-7.3,3.2c-3,0-5.5-1-7.5-3.1c-2-2.1-3-4.6-3-7.7s1-5.6,3-7.7
					c2.1-2.1,4.6-3.1,7.5-3.1C1115,409,1117.5,410.4,1118.3,412.4z M1116.8,424.3c1.3-1.2,1.9-2.7,1.9-4.5c0-1.8-0.6-3.3-1.9-4.5
					c-1.2-1.2-2.8-1.8-4.6-1.8c-1.8,0-3.3,0.6-4.5,1.8c-1.2,1.2-1.8,2.7-1.8,4.5c0,1.8,0.6,3.3,1.8,4.5c1.2,1.2,2.7,1.8,4.5,1.8
					C1114.1,426.1,1115.6,425.5,1116.8,424.3z"/>
			</g>
		</g>
	</g>
</g>
</svg>
